<svg xmlns="http://www.w3.org/2000/svg" viewBox="0 0 1000 1000" role="img" aria-labelledby="title desc">
  <title id="title">Arzé abstract tree logo</title>
  <desc id="desc">A stylized tree mark composed of flowing olive lines.</desc>
  <g fill="none" stroke="#6b7562" stroke-linecap="round" stroke-linejoin="round">
    <path d="M500 60 C 445 220, 355 305, 240 320 C 350 310, 445 225, 500 130 C 555 225, 650 310, 760 320 C 645 305, 555 220, 500 60 Z" stroke-width="30"/>
    <path d="M500 220 C 430 330, 295 420, 165 460 C 310 445, 430 355, 500 255 C 570 355, 690 445, 835 460 C 705 420, 570 330, 500 220 Z" stroke-width="30"/>
    <path d="M120 570 C 260 560, 365 510, 460 450 C 570 380, 690 385, 810 490" stroke-width="36"/>
    <path d="M90 650 C 255 670, 360 630, 470 560 C 585 485, 725 500, 980 650" stroke-width="36"/>
    <path d="M210 770 C 350 790, 455 730, 555 675 C 680 605, 790 625, 790 815 C 790 925, 720 980, 640 990" stroke-width="36"/>
  </g>
</svg>
